# xmcd
#
# Track frame offsets:
#	150
#	11820
#	25012
#	36442
#	46745
#	57760
#	68337
#	80622
#
# Disc length: 1237
#
# Revision: 2
# Processed by: cddbd v1.5.1PL0 Copyright (c) Steve Scherf et al.
# Submitted via: ExactAudioCopy v0.90b2
# Normalized: r0:DSETVAR1,TDELIM( - ),TSWAP
#
DISCID=5904d308
DTITLE=Various Artist - Country Music Cavalcade (Old Time Country Greats)
DYEAR=1900
DGENRE=Country
TTITLE0=Patsy Cline - Walkin' After Midnight
TTITLE1=Narvel Felts - Lonely Teardrops
TTITLE2=Kitty Wells - It Wasn't God Who Made Honky Tonk Angels
TTITLE3=Buddy Holly - That'll Be The Day
TTITLE4=Conway Twitty - Hello Darlin'
TTITLE5=Barbara Mandrell - Sleeping Single In A Double Bed
TTITLE6=Freddy Fender - Wasted Days And Wasted Nights
TTITLE7=Brenda Lee - All Alone Am I
EXTD=
EXTT0=
EXTT1=
EXTT2=
EXTT3=
EXTT4=
EXTT5=
EXTT6=
EXTT7=
PLAYORDER=
